<mxfile host="app.diagrams.net" modified="2024-01-24T16:20:08.688Z" agent="Mozilla/5.0 (Windows NT 10.0; Win64; x64) AppleWebKit/537.36 (KHTML, like Gecko) Chrome/120.0.0.0 Safari/537.36" etag="5nIccCTwAnMee5WW7u9x" version="23.0.0" type="device">
  <diagram name="Сторінка-1" id="H6RaVZmjDNcuzfpBkeKo">
    <mxGraphModel dx="2261" dy="1915" grid="1" gridSize="10" guides="1" tooltips="1" connect="1" arrows="1" fold="1" page="1" pageScale="1" pageWidth="827" pageHeight="1169" math="0" shadow="0">
      <root>
        <mxCell id="0" />
        <mxCell id="1" parent="0" />
        <mxCell id="8uitaqklSMUwjexbmV4y-21" value="Player" style="swimlane;fontStyle=1;align=center;verticalAlign=top;childLayout=stackLayout;horizontal=1;startSize=26;horizontalStack=0;resizeParent=1;resizeParentMax=0;resizeLast=0;collapsible=1;marginBottom=0;whiteSpace=wrap;html=1;" vertex="1" parent="1">
          <mxGeometry x="570" y="50" width="160" height="150" as="geometry" />
        </mxCell>
        <mxCell id="8uitaqklSMUwjexbmV4y-22" value="- int playerSpeed;&lt;br&gt;- str playerSkinPath;" style="text;strokeColor=none;fillColor=none;align=left;verticalAlign=top;spacingLeft=4;spacingRight=4;overflow=hidden;rotatable=0;points=[[0,0.5],[1,0.5]];portConstraint=eastwest;whiteSpace=wrap;html=1;" vertex="1" parent="8uitaqklSMUwjexbmV4y-21">
          <mxGeometry y="26" width="160" height="44" as="geometry" />
        </mxCell>
        <mxCell id="8uitaqklSMUwjexbmV4y-23" value="" style="line;strokeWidth=1;fillColor=none;align=left;verticalAlign=middle;spacingTop=-1;spacingLeft=3;spacingRight=3;rotatable=0;labelPosition=right;points=[];portConstraint=eastwest;strokeColor=inherit;" vertex="1" parent="8uitaqklSMUwjexbmV4y-21">
          <mxGeometry y="70" width="160" height="8" as="geometry" />
        </mxCell>
        <mxCell id="8uitaqklSMUwjexbmV4y-24" value="+ getPlayerSpeed();&lt;br&gt;+ setPlayerSpeed();&lt;br&gt;+ getPlayerSkin();&lt;br&gt;+ setPlayerSkin();" style="text;strokeColor=none;fillColor=none;align=left;verticalAlign=top;spacingLeft=4;spacingRight=4;overflow=hidden;rotatable=0;points=[[0,0.5],[1,0.5]];portConstraint=eastwest;whiteSpace=wrap;html=1;" vertex="1" parent="8uitaqklSMUwjexbmV4y-21">
          <mxGeometry y="78" width="160" height="72" as="geometry" />
        </mxCell>
        <mxCell id="8uitaqklSMUwjexbmV4y-29" value="Map" style="swimlane;fontStyle=1;align=center;verticalAlign=top;childLayout=stackLayout;horizontal=1;startSize=26;horizontalStack=0;resizeParent=1;resizeParentMax=0;resizeLast=0;collapsible=1;marginBottom=0;whiteSpace=wrap;html=1;" vertex="1" parent="1">
          <mxGeometry x="80" y="50" width="160" height="180" as="geometry" />
        </mxCell>
        <mxCell id="8uitaqklSMUwjexbmV4y-30" value="- str groundColor;&lt;br&gt;- str mapName;" style="text;strokeColor=none;fillColor=none;align=left;verticalAlign=top;spacingLeft=4;spacingRight=4;overflow=hidden;rotatable=0;points=[[0,0.5],[1,0.5]];portConstraint=eastwest;whiteSpace=wrap;html=1;" vertex="1" parent="8uitaqklSMUwjexbmV4y-29">
          <mxGeometry y="26" width="160" height="44" as="geometry" />
        </mxCell>
        <mxCell id="8uitaqklSMUwjexbmV4y-31" value="" style="line;strokeWidth=1;fillColor=none;align=left;verticalAlign=middle;spacingTop=-1;spacingLeft=3;spacingRight=3;rotatable=0;labelPosition=right;points=[];portConstraint=eastwest;strokeColor=inherit;" vertex="1" parent="8uitaqklSMUwjexbmV4y-29">
          <mxGeometry y="70" width="160" height="8" as="geometry" />
        </mxCell>
        <mxCell id="8uitaqklSMUwjexbmV4y-32" value="+ setGroundColor();&lt;br&gt;+ getGroundColor();&lt;br&gt;+ setMapName();&lt;br&gt;+ getMapName();" style="text;strokeColor=none;fillColor=none;align=left;verticalAlign=top;spacingLeft=4;spacingRight=4;overflow=hidden;rotatable=0;points=[[0,0.5],[1,0.5]];portConstraint=eastwest;whiteSpace=wrap;html=1;" vertex="1" parent="8uitaqklSMUwjexbmV4y-29">
          <mxGeometry y="78" width="160" height="102" as="geometry" />
        </mxCell>
        <mxCell id="8uitaqklSMUwjexbmV4y-33" value="Menu" style="swimlane;fontStyle=1;align=center;verticalAlign=top;childLayout=stackLayout;horizontal=1;startSize=26;horizontalStack=0;resizeParent=1;resizeParentMax=0;resizeLast=0;collapsible=1;marginBottom=0;whiteSpace=wrap;html=1;" vertex="1" parent="1">
          <mxGeometry x="-530" y="290" width="160" height="106" as="geometry" />
        </mxCell>
        <mxCell id="8uitaqklSMUwjexbmV4y-35" value="" style="line;strokeWidth=1;fillColor=none;align=left;verticalAlign=middle;spacingTop=-1;spacingLeft=3;spacingRight=3;rotatable=0;labelPosition=right;points=[];portConstraint=eastwest;strokeColor=inherit;" vertex="1" parent="8uitaqklSMUwjexbmV4y-33">
          <mxGeometry y="26" width="160" height="8" as="geometry" />
        </mxCell>
        <mxCell id="8uitaqklSMUwjexbmV4y-36" value="+ startMenu();&lt;br&gt;+ exitMenu();&lt;br&gt;+loseMenu();&lt;br&gt;+configurationMenu()" style="text;strokeColor=none;fillColor=none;align=left;verticalAlign=top;spacingLeft=4;spacingRight=4;overflow=hidden;rotatable=0;points=[[0,0.5],[1,0.5]];portConstraint=eastwest;whiteSpace=wrap;html=1;" vertex="1" parent="8uitaqklSMUwjexbmV4y-33">
          <mxGeometry y="34" width="160" height="72" as="geometry" />
        </mxCell>
        <mxCell id="8uitaqklSMUwjexbmV4y-41" value="Bot" style="swimlane;fontStyle=1;align=center;verticalAlign=top;childLayout=stackLayout;horizontal=1;startSize=26;horizontalStack=0;resizeParent=1;resizeParentMax=0;resizeLast=0;collapsible=1;marginBottom=0;whiteSpace=wrap;html=1;" vertex="1" parent="1">
          <mxGeometry x="310" y="60" width="160" height="130" as="geometry" />
        </mxCell>
        <mxCell id="8uitaqklSMUwjexbmV4y-42" value="-str skinPathFile;&lt;br&gt;-int speed;&lt;br&gt;- Task task;" style="text;strokeColor=none;fillColor=none;align=left;verticalAlign=top;spacingLeft=4;spacingRight=4;overflow=hidden;rotatable=0;points=[[0,0.5],[1,0.5]];portConstraint=eastwest;whiteSpace=wrap;html=1;" vertex="1" parent="8uitaqklSMUwjexbmV4y-41">
          <mxGeometry y="26" width="160" height="54" as="geometry" />
        </mxCell>
        <mxCell id="8uitaqklSMUwjexbmV4y-43" value="" style="line;strokeWidth=1;fillColor=none;align=left;verticalAlign=middle;spacingTop=-1;spacingLeft=3;spacingRight=3;rotatable=0;labelPosition=right;points=[];portConstraint=eastwest;strokeColor=inherit;" vertex="1" parent="8uitaqklSMUwjexbmV4y-41">
          <mxGeometry y="80" width="160" height="8" as="geometry" />
        </mxCell>
        <mxCell id="8uitaqklSMUwjexbmV4y-44" value="+speedChange();&lt;br&gt;+addTask();&lt;br&gt;" style="text;strokeColor=none;fillColor=none;align=left;verticalAlign=top;spacingLeft=4;spacingRight=4;overflow=hidden;rotatable=0;points=[[0,0.5],[1,0.5]];portConstraint=eastwest;whiteSpace=wrap;html=1;" vertex="1" parent="8uitaqklSMUwjexbmV4y-41">
          <mxGeometry y="88" width="160" height="42" as="geometry" />
        </mxCell>
        <mxCell id="8uitaqklSMUwjexbmV4y-45" value="Game" style="swimlane;fontStyle=1;align=center;verticalAlign=top;childLayout=stackLayout;horizontal=1;startSize=26;horizontalStack=0;resizeParent=1;resizeParentMax=0;resizeLast=0;collapsible=1;marginBottom=0;whiteSpace=wrap;html=1;" vertex="1" parent="1">
          <mxGeometry x="270" y="-190" width="160" height="180" as="geometry" />
        </mxCell>
        <mxCell id="8uitaqklSMUwjexbmV4y-46" value="- Map;&lt;br&gt;-Bot;&lt;br&gt;-Player;&lt;br&gt;-Menu;&lt;br&gt;-SoundManager;" style="text;strokeColor=none;fillColor=none;align=left;verticalAlign=top;spacingLeft=4;spacingRight=4;overflow=hidden;rotatable=0;points=[[0,0.5],[1,0.5]];portConstraint=eastwest;whiteSpace=wrap;html=1;" vertex="1" parent="8uitaqklSMUwjexbmV4y-45">
          <mxGeometry y="26" width="160" height="74" as="geometry" />
        </mxCell>
        <mxCell id="8uitaqklSMUwjexbmV4y-47" value="" style="line;strokeWidth=1;fillColor=none;align=left;verticalAlign=middle;spacingTop=-1;spacingLeft=3;spacingRight=3;rotatable=0;labelPosition=right;points=[];portConstraint=eastwest;strokeColor=inherit;" vertex="1" parent="8uitaqklSMUwjexbmV4y-45">
          <mxGeometry y="100" width="160" height="8" as="geometry" />
        </mxCell>
        <mxCell id="8uitaqklSMUwjexbmV4y-48" value="+startGame();&lt;br&gt;+endGame():" style="text;strokeColor=none;fillColor=none;align=left;verticalAlign=top;spacingLeft=4;spacingRight=4;overflow=hidden;rotatable=0;points=[[0,0.5],[1,0.5]];portConstraint=eastwest;whiteSpace=wrap;html=1;" vertex="1" parent="8uitaqklSMUwjexbmV4y-45">
          <mxGeometry y="108" width="160" height="72" as="geometry" />
        </mxCell>
        <mxCell id="8uitaqklSMUwjexbmV4y-49" value="SoundManager" style="swimlane;fontStyle=1;align=center;verticalAlign=top;childLayout=stackLayout;horizontal=1;startSize=26;horizontalStack=0;resizeParent=1;resizeParentMax=0;resizeLast=0;collapsible=1;marginBottom=0;whiteSpace=wrap;html=1;" vertex="1" parent="1">
          <mxGeometry x="720" y="-120" width="160" height="86" as="geometry" />
        </mxCell>
        <mxCell id="8uitaqklSMUwjexbmV4y-50" value="- Sound []{} sound;" style="text;strokeColor=none;fillColor=none;align=left;verticalAlign=top;spacingLeft=4;spacingRight=4;overflow=hidden;rotatable=0;points=[[0,0.5],[1,0.5]];portConstraint=eastwest;whiteSpace=wrap;html=1;" vertex="1" parent="8uitaqklSMUwjexbmV4y-49">
          <mxGeometry y="26" width="160" height="26" as="geometry" />
        </mxCell>
        <mxCell id="8uitaqklSMUwjexbmV4y-51" value="" style="line;strokeWidth=1;fillColor=none;align=left;verticalAlign=middle;spacingTop=-1;spacingLeft=3;spacingRight=3;rotatable=0;labelPosition=right;points=[];portConstraint=eastwest;strokeColor=inherit;" vertex="1" parent="8uitaqklSMUwjexbmV4y-49">
          <mxGeometry y="52" width="160" height="8" as="geometry" />
        </mxCell>
        <mxCell id="8uitaqklSMUwjexbmV4y-52" value="+playSound();" style="text;strokeColor=none;fillColor=none;align=left;verticalAlign=top;spacingLeft=4;spacingRight=4;overflow=hidden;rotatable=0;points=[[0,0.5],[1,0.5]];portConstraint=eastwest;whiteSpace=wrap;html=1;" vertex="1" parent="8uitaqklSMUwjexbmV4y-49">
          <mxGeometry y="60" width="160" height="26" as="geometry" />
        </mxCell>
        <mxCell id="8uitaqklSMUwjexbmV4y-53" value="Configuration" style="swimlane;fontStyle=1;align=center;verticalAlign=top;childLayout=stackLayout;horizontal=1;startSize=26;horizontalStack=0;resizeParent=1;resizeParentMax=0;resizeLast=0;collapsible=1;marginBottom=0;whiteSpace=wrap;html=1;" vertex="1" parent="1">
          <mxGeometry x="-120" y="480" width="160" height="80" as="geometry" />
        </mxCell>
        <mxCell id="8uitaqklSMUwjexbmV4y-55" value="" style="line;strokeWidth=1;fillColor=none;align=left;verticalAlign=middle;spacingTop=-1;spacingLeft=3;spacingRight=3;rotatable=0;labelPosition=right;points=[];portConstraint=eastwest;strokeColor=inherit;" vertex="1" parent="8uitaqklSMUwjexbmV4y-53">
          <mxGeometry y="26" width="160" height="8" as="geometry" />
        </mxCell>
        <mxCell id="8uitaqklSMUwjexbmV4y-56" value="+setConfiguration();&lt;br&gt;+dropConfiguration();&lt;br&gt;" style="text;strokeColor=none;fillColor=none;align=left;verticalAlign=top;spacingLeft=4;spacingRight=4;overflow=hidden;rotatable=0;points=[[0,0.5],[1,0.5]];portConstraint=eastwest;whiteSpace=wrap;html=1;" vertex="1" parent="8uitaqklSMUwjexbmV4y-53">
          <mxGeometry y="34" width="160" height="46" as="geometry" />
        </mxCell>
        <mxCell id="8uitaqklSMUwjexbmV4y-57" value="StartMenu" style="swimlane;fontStyle=1;align=center;verticalAlign=top;childLayout=stackLayout;horizontal=1;startSize=26;horizontalStack=0;resizeParent=1;resizeParentMax=0;resizeLast=0;collapsible=1;marginBottom=0;whiteSpace=wrap;html=1;" vertex="1" parent="1">
          <mxGeometry x="-120" y="166" width="160" height="80" as="geometry" />
        </mxCell>
        <mxCell id="8uitaqklSMUwjexbmV4y-59" value="" style="line;strokeWidth=1;fillColor=none;align=left;verticalAlign=middle;spacingTop=-1;spacingLeft=3;spacingRight=3;rotatable=0;labelPosition=right;points=[];portConstraint=eastwest;strokeColor=inherit;" vertex="1" parent="8uitaqklSMUwjexbmV4y-57">
          <mxGeometry y="26" width="160" height="8" as="geometry" />
        </mxCell>
        <mxCell id="8uitaqklSMUwjexbmV4y-60" value="+startGame();&lt;br&gt;+exitGame();" style="text;strokeColor=none;fillColor=none;align=left;verticalAlign=top;spacingLeft=4;spacingRight=4;overflow=hidden;rotatable=0;points=[[0,0.5],[1,0.5]];portConstraint=eastwest;whiteSpace=wrap;html=1;" vertex="1" parent="8uitaqklSMUwjexbmV4y-57">
          <mxGeometry y="34" width="160" height="46" as="geometry" />
        </mxCell>
        <mxCell id="8uitaqklSMUwjexbmV4y-61" value="LoseMenu" style="swimlane;fontStyle=1;align=center;verticalAlign=top;childLayout=stackLayout;horizontal=1;startSize=26;horizontalStack=0;resizeParent=1;resizeParentMax=0;resizeLast=0;collapsible=1;marginBottom=0;whiteSpace=wrap;html=1;" vertex="1" parent="1">
          <mxGeometry x="-120" y="370" width="160" height="90" as="geometry" />
        </mxCell>
        <mxCell id="8uitaqklSMUwjexbmV4y-63" value="" style="line;strokeWidth=1;fillColor=none;align=left;verticalAlign=middle;spacingTop=-1;spacingLeft=3;spacingRight=3;rotatable=0;labelPosition=right;points=[];portConstraint=eastwest;strokeColor=inherit;" vertex="1" parent="8uitaqklSMUwjexbmV4y-61">
          <mxGeometry y="26" width="160" height="8" as="geometry" />
        </mxCell>
        <mxCell id="8uitaqklSMUwjexbmV4y-64" value="+startAgain();&lt;br&gt;+toMainMenu();&lt;br&gt;+exitGame();" style="text;strokeColor=none;fillColor=none;align=left;verticalAlign=top;spacingLeft=4;spacingRight=4;overflow=hidden;rotatable=0;points=[[0,0.5],[1,0.5]];portConstraint=eastwest;whiteSpace=wrap;html=1;" vertex="1" parent="8uitaqklSMUwjexbmV4y-61">
          <mxGeometry y="34" width="160" height="56" as="geometry" />
        </mxCell>
        <mxCell id="8uitaqklSMUwjexbmV4y-65" value="ExitMenu" style="swimlane;fontStyle=1;align=center;verticalAlign=top;childLayout=stackLayout;horizontal=1;startSize=26;horizontalStack=0;resizeParent=1;resizeParentMax=0;resizeLast=0;collapsible=1;marginBottom=0;whiteSpace=wrap;html=1;" vertex="1" parent="1">
          <mxGeometry x="-120" y="270" width="160" height="80" as="geometry" />
        </mxCell>
        <mxCell id="8uitaqklSMUwjexbmV4y-67" value="" style="line;strokeWidth=1;fillColor=none;align=left;verticalAlign=middle;spacingTop=-1;spacingLeft=3;spacingRight=3;rotatable=0;labelPosition=right;points=[];portConstraint=eastwest;strokeColor=inherit;" vertex="1" parent="8uitaqklSMUwjexbmV4y-65">
          <mxGeometry y="26" width="160" height="8" as="geometry" />
        </mxCell>
        <mxCell id="8uitaqklSMUwjexbmV4y-68" value="+toMainMenu();&lt;br&gt;+exitGame();" style="text;strokeColor=none;fillColor=none;align=left;verticalAlign=top;spacingLeft=4;spacingRight=4;overflow=hidden;rotatable=0;points=[[0,0.5],[1,0.5]];portConstraint=eastwest;whiteSpace=wrap;html=1;" vertex="1" parent="8uitaqklSMUwjexbmV4y-65">
          <mxGeometry y="34" width="160" height="46" as="geometry" />
        </mxCell>
        <mxCell id="8uitaqklSMUwjexbmV4y-88" style="edgeStyle=orthogonalEdgeStyle;rounded=0;orthogonalLoop=1;jettySize=auto;html=1;exitX=0.5;exitY=0;exitDx=0;exitDy=0;entryX=1;entryY=0.5;entryDx=0;entryDy=0;endArrow=none;endFill=0;endSize=15;" edge="1" parent="1" source="8uitaqklSMUwjexbmV4y-69" target="8uitaqklSMUwjexbmV4y-44">
          <mxGeometry relative="1" as="geometry" />
        </mxCell>
        <mxCell id="8uitaqklSMUwjexbmV4y-69" value="Task" style="swimlane;fontStyle=1;align=center;verticalAlign=top;childLayout=stackLayout;horizontal=1;startSize=26;horizontalStack=0;resizeParent=1;resizeParentMax=0;resizeLast=0;collapsible=1;marginBottom=0;whiteSpace=wrap;html=1;" vertex="1" parent="1">
          <mxGeometry x="440" y="310" width="160" height="86" as="geometry" />
        </mxCell>
        <mxCell id="8uitaqklSMUwjexbmV4y-70" value="-str taskName();" style="text;strokeColor=none;fillColor=none;align=left;verticalAlign=top;spacingLeft=4;spacingRight=4;overflow=hidden;rotatable=0;points=[[0,0.5],[1,0.5]];portConstraint=eastwest;whiteSpace=wrap;html=1;" vertex="1" parent="8uitaqklSMUwjexbmV4y-69">
          <mxGeometry y="26" width="160" height="26" as="geometry" />
        </mxCell>
        <mxCell id="8uitaqklSMUwjexbmV4y-71" value="" style="line;strokeWidth=1;fillColor=none;align=left;verticalAlign=middle;spacingTop=-1;spacingLeft=3;spacingRight=3;rotatable=0;labelPosition=right;points=[];portConstraint=eastwest;strokeColor=inherit;" vertex="1" parent="8uitaqklSMUwjexbmV4y-69">
          <mxGeometry y="52" width="160" height="8" as="geometry" />
        </mxCell>
        <mxCell id="8uitaqklSMUwjexbmV4y-72" value="+executeTask();" style="text;strokeColor=none;fillColor=none;align=left;verticalAlign=top;spacingLeft=4;spacingRight=4;overflow=hidden;rotatable=0;points=[[0,0.5],[1,0.5]];portConstraint=eastwest;whiteSpace=wrap;html=1;" vertex="1" parent="8uitaqklSMUwjexbmV4y-69">
          <mxGeometry y="60" width="160" height="26" as="geometry" />
        </mxCell>
        <mxCell id="8uitaqklSMUwjexbmV4y-74" value="Sound" style="swimlane;fontStyle=1;align=center;verticalAlign=top;childLayout=stackLayout;horizontal=1;startSize=26;horizontalStack=0;resizeParent=1;resizeParentMax=0;resizeLast=0;collapsible=1;marginBottom=0;whiteSpace=wrap;html=1;" vertex="1" parent="1">
          <mxGeometry x="940" y="-50" width="160" height="150" as="geometry" />
        </mxCell>
        <mxCell id="8uitaqklSMUwjexbmV4y-75" value="-str soundPathFile;&lt;br&gt;-str soundName" style="text;strokeColor=none;fillColor=none;align=left;verticalAlign=top;spacingLeft=4;spacingRight=4;overflow=hidden;rotatable=0;points=[[0,0.5],[1,0.5]];portConstraint=eastwest;whiteSpace=wrap;html=1;" vertex="1" parent="8uitaqklSMUwjexbmV4y-74">
          <mxGeometry y="26" width="160" height="44" as="geometry" />
        </mxCell>
        <mxCell id="8uitaqklSMUwjexbmV4y-76" value="" style="line;strokeWidth=1;fillColor=none;align=left;verticalAlign=middle;spacingTop=-1;spacingLeft=3;spacingRight=3;rotatable=0;labelPosition=right;points=[];portConstraint=eastwest;strokeColor=inherit;" vertex="1" parent="8uitaqklSMUwjexbmV4y-74">
          <mxGeometry y="70" width="160" height="8" as="geometry" />
        </mxCell>
        <mxCell id="8uitaqklSMUwjexbmV4y-77" value="+getSoundPath();&lt;br&gt;+setSoundPath();&lt;br&gt;+getSoundName();&lt;br&gt;+setSoundName():" style="text;strokeColor=none;fillColor=none;align=left;verticalAlign=top;spacingLeft=4;spacingRight=4;overflow=hidden;rotatable=0;points=[[0,0.5],[1,0.5]];portConstraint=eastwest;whiteSpace=wrap;html=1;" vertex="1" parent="8uitaqklSMUwjexbmV4y-74">
          <mxGeometry y="78" width="160" height="72" as="geometry" />
        </mxCell>
        <mxCell id="8uitaqklSMUwjexbmV4y-78" style="edgeStyle=orthogonalEdgeStyle;rounded=0;orthogonalLoop=1;jettySize=auto;html=1;exitX=1;exitY=0.5;exitDx=0;exitDy=0;entryX=0;entryY=0.5;entryDx=0;entryDy=0;dashed=1;endArrow=block;endFill=0;strokeWidth=1;endSize=15;" edge="1" parent="1" source="8uitaqklSMUwjexbmV4y-36" target="8uitaqklSMUwjexbmV4y-60">
          <mxGeometry relative="1" as="geometry" />
        </mxCell>
        <mxCell id="8uitaqklSMUwjexbmV4y-79" style="edgeStyle=orthogonalEdgeStyle;rounded=0;orthogonalLoop=1;jettySize=auto;html=1;exitX=1;exitY=0.5;exitDx=0;exitDy=0;entryX=0;entryY=0.5;entryDx=0;entryDy=0;dashed=1;endArrow=block;endFill=0;endSize=15;" edge="1" parent="1" source="8uitaqklSMUwjexbmV4y-36" target="8uitaqklSMUwjexbmV4y-68">
          <mxGeometry relative="1" as="geometry" />
        </mxCell>
        <mxCell id="8uitaqklSMUwjexbmV4y-80" style="edgeStyle=orthogonalEdgeStyle;rounded=0;orthogonalLoop=1;jettySize=auto;html=1;exitX=1;exitY=0.5;exitDx=0;exitDy=0;entryX=0;entryY=0.5;entryDx=0;entryDy=0;dashed=1;endArrow=block;endFill=0;endSize=15;" edge="1" parent="1" source="8uitaqklSMUwjexbmV4y-36" target="8uitaqklSMUwjexbmV4y-64">
          <mxGeometry relative="1" as="geometry" />
        </mxCell>
        <mxCell id="8uitaqklSMUwjexbmV4y-81" style="edgeStyle=orthogonalEdgeStyle;rounded=0;orthogonalLoop=1;jettySize=auto;html=1;exitX=1;exitY=0.5;exitDx=0;exitDy=0;entryX=0.019;entryY=0.326;entryDx=0;entryDy=0;entryPerimeter=0;dashed=1;endArrow=block;endFill=0;endSize=15;" edge="1" parent="1" source="8uitaqklSMUwjexbmV4y-36" target="8uitaqklSMUwjexbmV4y-56">
          <mxGeometry relative="1" as="geometry" />
        </mxCell>
        <mxCell id="8uitaqklSMUwjexbmV4y-82" style="edgeStyle=orthogonalEdgeStyle;rounded=0;orthogonalLoop=1;jettySize=auto;html=1;exitX=0;exitY=0.5;exitDx=0;exitDy=0;dashed=1;endArrow=open;endFill=0;endSize=15;" edge="1" parent="1" source="8uitaqklSMUwjexbmV4y-48" target="8uitaqklSMUwjexbmV4y-29">
          <mxGeometry relative="1" as="geometry" />
        </mxCell>
        <mxCell id="8uitaqklSMUwjexbmV4y-83" style="edgeStyle=orthogonalEdgeStyle;rounded=0;orthogonalLoop=1;jettySize=auto;html=1;exitX=1;exitY=0.5;exitDx=0;exitDy=0;entryX=0.5;entryY=0;entryDx=0;entryDy=0;dashed=1;endArrow=open;endFill=0;endSize=15;" edge="1" parent="1" source="8uitaqklSMUwjexbmV4y-48" target="8uitaqklSMUwjexbmV4y-41">
          <mxGeometry relative="1" as="geometry" />
        </mxCell>
        <mxCell id="8uitaqklSMUwjexbmV4y-84" style="edgeStyle=orthogonalEdgeStyle;rounded=0;orthogonalLoop=1;jettySize=auto;html=1;exitX=1;exitY=0.5;exitDx=0;exitDy=0;dashed=1;endArrow=open;endFill=0;endSize=15;" edge="1" parent="1" source="8uitaqklSMUwjexbmV4y-48" target="8uitaqklSMUwjexbmV4y-21">
          <mxGeometry relative="1" as="geometry" />
        </mxCell>
        <mxCell id="8uitaqklSMUwjexbmV4y-85" style="edgeStyle=orthogonalEdgeStyle;rounded=0;orthogonalLoop=1;jettySize=auto;html=1;exitX=1;exitY=0.5;exitDx=0;exitDy=0;entryX=0;entryY=0.5;entryDx=0;entryDy=0;dashed=1;endArrow=open;endFill=0;endSize=15;" edge="1" parent="1" source="8uitaqklSMUwjexbmV4y-48" target="8uitaqklSMUwjexbmV4y-50">
          <mxGeometry relative="1" as="geometry" />
        </mxCell>
        <mxCell id="8uitaqklSMUwjexbmV4y-86" style="edgeStyle=orthogonalEdgeStyle;rounded=0;orthogonalLoop=1;jettySize=auto;html=1;exitX=0;exitY=0.5;exitDx=0;exitDy=0;dashed=1;endArrow=open;endFill=0;endSize=15;" edge="1" parent="1" source="8uitaqklSMUwjexbmV4y-48" target="8uitaqklSMUwjexbmV4y-33">
          <mxGeometry relative="1" as="geometry" />
        </mxCell>
        <mxCell id="8uitaqklSMUwjexbmV4y-87" style="edgeStyle=orthogonalEdgeStyle;rounded=0;orthogonalLoop=1;jettySize=auto;html=1;exitX=1;exitY=0.5;exitDx=0;exitDy=0;dashed=1;endArrow=open;endFill=0;endSize=15;" edge="1" parent="1" source="8uitaqklSMUwjexbmV4y-50" target="8uitaqklSMUwjexbmV4y-77">
          <mxGeometry relative="1" as="geometry" />
        </mxCell>
      </root>
    </mxGraphModel>
  </diagram>
</mxfile>
